<?xml version="1.0" encoding="UTF-8"?>
<!DOCTYPE svg PUBLIC "-//W3C//DTD SVG 1.1//EN" "http://www.w3.org/Graphics/SVG/1.1/DTD/svg11.dtd">
<svg xmlns="http://www.w3.org/2000/svg" version="1.1" width="500px" height="500px" style="shape-rendering:geometricPrecision; text-rendering:geometricPrecision; image-rendering:optimizeQuality; fill-rule:evenodd; clip-rule:evenodd" xmlns:xlink="http://www.w3.org/1999/xlink">
<g><path style="opacity:1" fill="#112056" d="M -0.5,-0.5 C 166.167,-0.5 332.833,-0.5 499.5,-0.5C 499.5,166.167 499.5,332.833 499.5,499.5C 332.833,499.5 166.167,499.5 -0.5,499.5C -0.5,332.833 -0.5,166.167 -0.5,-0.5 Z"/></g>
<g><path style="opacity:1" fill="#f8a408" d="M 111.5,237.5 C 109.621,238.341 107.621,238.675 105.5,238.5C 105.667,227.828 105.5,217.161 105,206.5C 104.167,205.667 103.333,204.833 102.5,204C 98.112,203.423 93.7786,203.756 89.5,205C 85.2245,206.486 80.8911,207.819 76.5,209C 75.6195,209.708 74.9528,210.542 74.5,211.5C 73.1786,220.009 73.1786,228.675 74.5,237.5C 75.1067,237.376 75.44,237.043 75.5,236.5C 78.1667,236.167 80.8333,235.833 83.5,235.5C 84.4896,229.69 84.8229,223.69 84.5,217.5C 87.1656,217.067 89.8323,216.567 92.5,216C 93.056,215.617 93.3893,215.117 93.5,214.5C 95.4684,222.433 96.135,230.766 95.5,239.5C 83.3544,241.119 71.6877,244.119 60.5,248.5C 59.5111,253.975 59.1778,259.642 59.5,265.5C 60.791,265.737 61.791,265.404 62.5,264.5C 65.4167,261.697 68.75,259.363 72.5,257.5C 73.6548,260.446 73.8214,263.446 73,266.5C 67.3375,270.667 61.8375,275 56.5,279.5C 55.8333,252.167 55.1667,224.833 54.5,197.5C 54.573,195.973 53.9063,194.973 52.5,194.5C 48.6113,193.306 44.6113,193.472 40.5,195C 36.0191,196.954 31.3525,198.287 26.5,199C 25.2899,200.039 24.2899,201.206 23.5,202.5C 22.1721,222.004 22.1721,241.671 23.5,261.5C 24.1067,261.376 24.44,261.043 24.5,260.5C 27.1789,258.399 30.0123,256.399 33,254.5C 33.3333,238.833 33.6667,223.167 34,207.5C 37.3209,206.029 40.8209,205.363 44.5,205.5C 44.6666,222.17 44.4999,238.837 44,255.5C 33.5078,260.996 23.8411,267.663 15,275.5C 14.3333,246.167 14.3333,216.833 15,187.5C 16.8333,183 20,179.833 24.5,178C 43.5,177.333 62.5,177.333 81.5,178C 111.323,187.813 121.323,207.646 111.5,237.5 Z"/></g>
<g><path style="opacity:1" fill="#946929" d="M 243.5,198.5 C 243.5,198.167 243.5,197.833 243.5,197.5C 260.167,197.5 276.833,197.5 293.5,197.5C 293.817,201.702 293.483,205.702 292.5,209.5C 292.5,205.833 292.5,202.167 292.5,198.5C 276.167,198.5 259.833,198.5 243.5,198.5 Z"/></g>
<g><path style="opacity:1" fill="#866130" d="M 350.5,209.5 C 350.167,209.5 349.833,209.5 349.5,209.5C 349.5,205.833 349.5,202.167 349.5,198.5C 333.833,198.5 318.167,198.5 302.5,198.5C 302.5,219.833 302.5,241.167 302.5,262.5C 301.503,241.006 301.169,219.34 301.5,197.5C 317.833,197.5 334.167,197.5 350.5,197.5C 350.5,201.5 350.5,205.5 350.5,209.5 Z"/></g>
<g><path style="opacity:1" fill="#f8a309" d="M 349.5,209.5 C 338.167,209.5 326.833,209.5 315.5,209.5C 315.5,213.833 315.5,218.167 315.5,222.5C 325.653,223.494 335.986,223.828 346.5,223.5C 346.5,227.167 346.5,230.833 346.5,234.5C 336.167,234.5 325.833,234.5 315.5,234.5C 315.5,240.167 315.5,245.833 315.5,251.5C 327.5,251.5 339.5,251.5 351.5,251.5C 351.5,255.5 351.5,259.5 351.5,263.5C 334.991,263.83 318.658,263.496 302.5,262.5C 302.5,241.167 302.5,219.833 302.5,198.5C 318.167,198.5 333.833,198.5 349.5,198.5C 349.5,202.167 349.5,205.833 349.5,209.5 Z"/></g>
<g><path style="opacity:1" fill="#8e6624" d="M 54.5,197.5 C 55.1667,224.833 55.8333,252.167 56.5,279.5C 56.44,280.043 56.1067,280.376 55.5,280.5C 54.5002,252.841 54.1669,225.175 54.5,197.5 Z"/></g>
<g><path style="opacity:1" fill="#f8a408" d="M 192.5,198.5 C 198.681,198.588 203.347,201.255 206.5,206.5C 207.114,210.135 207.448,213.802 207.5,217.5C 207.432,222.076 205.432,225.576 201.5,228C 209.717,232.947 212.55,240.114 210,249.5C 208.92,251.996 207.586,254.33 206,256.5C 203.521,258.314 201.021,259.981 198.5,261.5C 196.139,261.674 193.806,262.007 191.5,262.5C 180.167,262.5 168.833,262.5 157.5,262.5C 157.5,241.167 157.5,219.833 157.5,198.5C 169.167,198.5 180.833,198.5 192.5,198.5 Z"/></g>
<g><path style="opacity:1" fill="#faa407" d="M 243.5,198.5 C 259.833,198.5 276.167,198.5 292.5,198.5C 292.5,202.167 292.5,205.833 292.5,209.5C 281.786,222.212 271.453,235.212 261.5,248.5C 260.522,248.811 259.855,249.478 259.5,250.5C 270.48,251.499 281.48,251.832 292.5,251.5C 292.5,255.167 292.5,258.833 292.5,262.5C 275.833,262.5 259.167,262.5 242.5,262.5C 242.334,258.486 242.501,254.486 243,250.5C 253.381,237.625 263.548,224.625 273.5,211.5C 274.289,211.217 274.956,210.717 275.5,210C 264.839,209.5 254.172,209.333 243.5,209.5C 243.5,205.833 243.5,202.167 243.5,198.5 Z"/></g>
<g><path style="opacity:1" fill="#f7a30a" d="M 413.5,240.5 C 413.334,245.844 413.501,251.177 414,256.5C 415.118,258.765 415.951,261.099 416.5,263.5C 411.5,263.5 406.5,263.5 401.5,263.5C 400.816,256.191 400.316,248.858 400,241.5C 398.871,239.859 397.371,238.859 395.5,238.5C 389.021,237.509 382.354,237.176 375.5,237.5C 375.5,245.833 375.5,254.167 375.5,262.5C 371.366,263.485 367.032,263.818 362.5,263.5C 362.5,241.5 362.5,219.5 362.5,197.5C 374.838,197.333 387.171,197.5 399.5,198C 412.041,200.905 417.207,208.738 415,221.5C 413.65,226.185 410.817,229.685 406.5,232C 410.877,233.205 413.21,236.039 413.5,240.5 Z"/></g>
<g><path style="opacity:1" fill="#f6a20b" d="M 483.5,259.5 C 483.5,260.5 483.5,261.5 483.5,262.5C 478.833,262.5 474.167,262.5 469.5,262.5C 468.976,260.694 468.309,259.028 467.5,257.5C 467.59,254.848 466.924,252.515 465.5,250.5C 457.677,249.344 449.677,249.177 441.5,250C 439.743,254.019 438.409,258.186 437.5,262.5C 432.381,263.103 427.715,262.436 423.5,260.5C 423.5,259.833 423.5,259.167 423.5,258.5C 430.888,238.695 438.054,218.695 445,198.5C 450.667,197.167 456.333,197.167 462,198.5C 469.278,218.835 476.444,239.168 483.5,259.5 Z"/></g>
<g><path style="opacity:1" fill="#162054" d="M 52.5,194.5 C 53.9063,194.973 54.573,195.973 54.5,197.5C 54.1669,225.175 54.5002,252.841 55.5,280.5C 56.1067,280.376 56.44,280.043 56.5,279.5C 61.8375,275 67.3375,270.667 73,266.5C 73.8214,263.446 73.6548,260.446 72.5,257.5C 68.75,259.363 65.4167,261.697 62.5,264.5C 60.5539,259.604 59.8872,254.271 60.5,248.5C 71.6877,244.119 83.3544,241.119 95.5,239.5C 96.135,230.766 95.4684,222.433 93.5,214.5C 90.198,215.294 86.8647,215.96 83.5,216.5C 83.5,222.833 83.5,229.167 83.5,235.5C 80.8333,235.833 78.1667,236.167 75.5,236.5C 74.5073,228.35 74.1739,220.017 74.5,211.5C 74.9528,210.542 75.6195,209.708 76.5,209C 80.8911,207.819 85.2245,206.486 89.5,205C 93.7786,203.756 98.112,203.423 102.5,204C 103.333,204.833 104.167,205.667 105,206.5C 105.5,217.161 105.667,227.828 105.5,238.5C 107.621,238.675 109.621,238.341 111.5,237.5C 110.051,239.164 108.051,239.998 105.5,240C 107.382,240.198 109.048,240.698 110.5,241.5C 108.833,241.5 107.167,241.5 105.5,241.5C 105.334,248.841 105.5,256.174 106,263.5C 118.148,273.644 118.648,284.477 107.5,296C 105.283,297.275 102.949,298.275 100.5,299C 83.1667,299.333 65.8333,299.667 48.5,300C 43.5579,305.769 39.2245,311.936 35.5,318.5C 32.6416,316.876 31.9749,317.543 33.5,320.5C 31.2024,319.203 29.2024,317.537 27.5,315.5C 32.174,306.827 37.8407,298.827 44.5,291.5C 45.8095,287.649 45.8095,283.649 44.5,279.5C 43.8933,279.624 43.56,279.957 43.5,280.5C 42.8333,281.167 42.1667,281.833 41.5,282.5C 41.3398,280.801 41.5065,279.134 42,277.5C 43.1131,278.711 44.2798,278.711 45.5,277.5C 46.1924,278.025 46.6924,278.692 47,279.5C 47.4152,277.709 48.4152,276.376 50,275.5C 50.6838,276.784 50.5171,277.951 49.5,279C 49.8333,279.167 50.1667,279.333 50.5,279.5C 51.2508,278.624 51.7508,277.624 52,276.5C 52.3333,276.833 52.6667,277.167 53,277.5C 53.8161,249.791 53.6495,222.124 52.5,194.5 Z"/></g>
<g><path style="opacity:1" fill="#9a6e28" d="M 192.5,198.5 C 180.833,198.5 169.167,198.5 157.5,198.5C 157.5,219.833 157.5,241.167 157.5,262.5C 168.833,262.5 180.167,262.5 191.5,262.5C 180.346,263.495 169.012,263.828 157.5,263.5C 156.503,241.673 156.169,219.673 156.5,197.5C 168.678,197.172 180.678,197.505 192.5,198.5 Z"/></g>
<g><path style="opacity:1" fill="#2e2a42" d="M 243.5,209.5 C 254.172,209.333 264.839,209.5 275.5,210C 274.956,210.717 274.289,211.217 273.5,211.5C 263.5,210.833 253.5,210.167 243.5,209.5 Z"/></g>
<g><path style="opacity:1" fill="#2e283e" d="M 349.5,209.5 C 349.833,209.5 350.167,209.5 350.5,209.5C 339.346,210.495 328.012,210.828 316.5,210.5C 316.5,214.5 316.5,218.5 316.5,222.5C 316.167,222.5 315.833,222.5 315.5,222.5C 315.5,218.167 315.5,213.833 315.5,209.5C 326.833,209.5 338.167,209.5 349.5,209.5 Z"/></g>
<g><path style="opacity:1" fill="#172153" d="M 395.5,209.5 C 397.583,210.029 399.417,211.029 401,212.5C 401.921,216.711 401.421,220.711 399.5,224.5C 398.5,225 397.5,225.5 396.5,226C 389.842,226.5 383.175,226.666 376.5,226.5C 376.5,220.833 376.5,215.167 376.5,209.5C 382.833,209.5 389.167,209.5 395.5,209.5 Z"/></g>
<g><path style="opacity:1" fill="#a1762f" d="M 23.5,202.5 C 23.1697,222.007 23.503,241.341 24.5,260.5C 24.44,261.043 24.1067,261.376 23.5,261.5C 22.1721,241.671 22.1721,222.004 23.5,202.5 Z"/></g>
<g><path style="opacity:1" fill="#132055" d="M 170.5,209.5 C 176.842,209.334 183.175,209.5 189.5,210C 190.872,210.402 192.205,210.902 193.5,211.5C 194.652,214.106 194.818,216.773 194,219.5C 192.871,221.141 191.371,222.141 189.5,222.5C 183.167,222.5 176.833,222.5 170.5,222.5C 170.5,218.167 170.5,213.833 170.5,209.5 Z"/></g>
<g><path style="opacity:1" fill="#976b2e" d="M 206.5,206.5 C 208.569,210.044 208.902,213.71 207.5,217.5C 207.448,213.802 207.114,210.135 206.5,206.5 Z"/></g>
<g><path style="opacity:1" fill="#7e5928" d="M 395.5,209.5 C 389.167,209.5 382.833,209.5 376.5,209.5C 376.5,215.167 376.5,220.833 376.5,226.5C 375.51,220.69 375.177,214.69 375.5,208.5C 382.354,208.176 389.021,208.509 395.5,209.5 Z"/></g>
<g><path style="opacity:1" fill="#3b3337" d="M 74.5,211.5 C 74.1739,220.017 74.5073,228.35 75.5,236.5C 75.44,237.043 75.1067,237.376 74.5,237.5C 73.1786,228.675 73.1786,220.009 74.5,211.5 Z"/></g>
<g><path style="opacity:1" fill="#af7e24" d="M 93.5,214.5 C 93.3893,215.117 93.056,215.617 92.5,216C 89.8323,216.567 87.1656,217.067 84.5,217.5C 84.8229,223.69 84.4896,229.69 83.5,235.5C 83.5,229.167 83.5,222.833 83.5,216.5C 86.8647,215.96 90.198,215.294 93.5,214.5 Z"/></g>
<g><path style="opacity:1" fill="#674c2f" d="M 170.5,209.5 C 170.5,213.833 170.5,218.167 170.5,222.5C 176.833,222.5 183.167,222.5 189.5,222.5C 183.021,223.491 176.354,223.824 169.5,223.5C 169.181,218.637 169.514,213.97 170.5,209.5 Z"/></g>
<g><path style="opacity:1" fill="#755734" d="M 315.5,222.5 C 315.833,222.5 316.167,222.5 316.5,222.5C 326.833,222.5 337.167,222.5 347.5,222.5C 347.5,226.5 347.5,230.5 347.5,234.5C 347.167,234.5 346.833,234.5 346.5,234.5C 346.5,230.833 346.5,227.167 346.5,223.5C 335.986,223.828 325.653,223.494 315.5,222.5 Z"/></g>
<g><path style="opacity:1" fill="#1e2251" d="M 460.5,235.5 C 458.603,236.805 456.269,237.471 453.5,237.5C 450.731,237.471 448.397,236.805 446.5,235.5C 447.836,228.16 450.169,221.16 453.5,214.5C 456.431,221.293 458.764,228.293 460.5,235.5 Z"/></g>
<g><path style="opacity:1" fill="#162053" d="M 170.5,234.5 C 177.175,234.334 183.842,234.5 190.5,235C 196.158,236.829 197.992,240.663 196,246.5C 195.535,247.931 194.701,249.097 193.5,250C 185.92,251.396 178.253,251.896 170.5,251.5C 170.5,245.833 170.5,240.167 170.5,234.5 Z"/></g>
<g><path style="opacity:1" fill="#533e31" d="M 446.5,235.5 C 448.397,236.805 450.731,237.471 453.5,237.5C 456.269,237.471 458.603,236.805 460.5,235.5C 461.404,236.209 461.737,237.209 461.5,238.5C 456.167,238.5 450.833,238.5 445.5,238.5C 445.263,237.209 445.596,236.209 446.5,235.5 Z"/></g>
<g><path style="opacity:1" fill="#f8a308" d="M 110.5,241.5 C 132.446,252.295 140.613,269.628 135,293.5C 128.638,310.428 116.471,319.761 98.5,321.5C 77.1563,321.833 55.8229,321.5 34.5,320.5C 34.8627,319.817 35.1961,319.15 35.5,318.5C 39.2245,311.936 43.5579,305.769 48.5,300C 65.8333,299.667 83.1667,299.333 100.5,299C 102.949,298.275 105.283,297.275 107.5,296C 118.648,284.477 118.148,273.644 106,263.5C 105.5,256.174 105.334,248.841 105.5,241.5C 107.167,241.5 108.833,241.5 110.5,241.5 Z"/></g>
<g><path style="opacity:1" fill="#5b422d" d="M 395.5,238.5 C 389.167,238.5 382.833,238.5 376.5,238.5C 376.826,246.684 376.492,254.684 375.5,262.5C 375.5,254.167 375.5,245.833 375.5,237.5C 382.354,237.176 389.021,237.509 395.5,238.5 Z"/></g>
<g><path style="opacity:1" fill="#fba506" d="M 92.5,247.5 C 94.4228,251.029 95.0894,255.029 94.5,259.5C 91.1667,259.5 87.8333,259.5 84.5,259.5C 83.9758,255.572 84.9758,252.239 87.5,249.5C 88.7804,248.069 90.4471,247.402 92.5,247.5 Z"/></g>
<g><path style="opacity:1" fill="#483a3e" d="M 261.5,248.5 C 271.961,250.158 282.628,251.158 293.5,251.5C 293.167,251.5 292.833,251.5 292.5,251.5C 281.48,251.832 270.48,251.499 259.5,250.5C 259.855,249.478 260.522,248.811 261.5,248.5 Z"/></g>
<g><path style="opacity:1" fill="#433639" d="M 346.5,234.5 C 346.833,234.5 347.167,234.5 347.5,234.5C 337.347,235.494 327.014,235.828 316.5,235.5C 316.5,240.5 316.5,245.5 316.5,250.5C 328.345,250.172 340.012,250.505 351.5,251.5C 339.5,251.5 327.5,251.5 315.5,251.5C 315.5,245.833 315.5,240.167 315.5,234.5C 325.833,234.5 336.167,234.5 346.5,234.5 Z"/></g>
<g><path style="opacity:1" fill="#192458" d="M 395.5,238.5 C 397.371,238.859 398.871,239.859 400,241.5C 400.316,248.858 400.816,256.191 401.5,263.5C 406.5,263.5 411.5,263.5 416.5,263.5C 415.951,261.099 415.118,258.765 414,256.5C 413.501,251.177 413.334,245.844 413.5,240.5C 415.701,240.858 417.035,242.192 417.5,244.5C 417.154,245.696 416.654,245.696 416,244.5C 415.333,247.167 415.333,249.833 416,252.5C 416.219,251.062 416.719,249.729 417.5,248.5C 417.755,250.343 417.922,252.343 418,254.5C 419.451,256.464 421.284,257.797 423.5,258.5C 423.5,259.167 423.5,259.833 423.5,260.5C 422.596,261.209 422.263,262.209 422.5,263.5C 427.695,263.821 432.695,263.487 437.5,262.5C 438.409,258.186 439.743,254.019 441.5,250C 449.677,249.177 457.677,249.344 465.5,250.5C 465.41,253.152 466.076,255.485 467.5,257.5C 468.309,259.028 468.976,260.694 469.5,262.5C 474.305,263.487 479.305,263.821 484.5,263.5C 484.5,262.5 484.5,261.5 484.5,260.5C 486.624,259.969 488.124,258.635 489,256.5C 489.692,257.025 490.192,257.692 490.5,258.5C 489.5,259.833 488.5,261.167 487.5,262.5C 487.709,263.086 488.043,263.586 488.5,264C 486.667,264.5 485.5,265.667 485,267.5C 484.751,266.376 484.251,265.376 483.5,264.5C 483.167,265.167 482.833,265.833 482.5,266.5C 479.869,265.276 477.035,264.609 474,264.5C 471.5,264.833 469,265.167 466.5,265.5C 468.098,265.61 469.765,265.943 471.5,266.5C 472.881,267.881 474.215,269.215 475.5,270.5C 473.848,275.813 472.181,281.146 470.5,286.5C 471.325,287.386 472.325,287.719 473.5,287.5C 474.288,290.621 476.288,292.288 479.5,292.5C 478.766,293.708 478.433,295.041 478.5,296.5C 477.778,296.082 477.278,295.416 477,294.5C 476.768,295.737 476.268,296.737 475.5,297.5C 474.099,297.029 472.766,296.362 471.5,295.5C 472.274,294.289 473.107,294.289 474,295.5C 474.301,292.909 473.134,292.075 470.5,293C 469.643,293.689 468.977,294.522 468.5,295.5C 469.936,296.934 471.602,298.1 473.5,299C 471.942,299.21 470.609,299.71 469.5,300.5C 468.609,299.89 467.609,299.557 466.5,299.5C 466.167,299.5 465.833,299.5 465.5,299.5C 460.203,298.968 460.203,298.134 465.5,297C 460.203,295.866 460.203,295.032 465.5,294.5C 466.043,294.44 466.376,294.107 466.5,293.5C 464.257,292.526 461.924,292.192 459.5,292.5C 459.5,295.5 459.5,298.5 459.5,301.5C 461.167,301.5 462.833,301.5 464.5,301.5C 465.85,302.65 465.684,303.317 464,303.5C 461.333,302.167 458.667,302.167 456,303.5C 454.97,303.164 454.47,302.497 454.5,301.5C 455.748,300.666 456.415,299.333 456.5,297.5C 456.203,293.001 455.369,292.667 454,296.5C 452.981,295.313 451.814,294.313 450.5,293.5C 449.353,295.765 449.186,298.098 450,300.5C 450.333,299.167 450.667,297.833 451,296.5C 451.717,297.044 452.217,297.711 452.5,298.5C 451.566,299.568 451.232,300.901 451.5,302.5C 448.941,302.802 446.607,302.468 444.5,301.5C 445.803,298.645 445.803,295.645 444.5,292.5C 443.516,295.428 443.183,298.428 443.5,301.5C 442.732,300.737 442.232,299.737 442,298.5C 441.764,300.119 440.931,301.119 439.5,301.5C 440.301,299.958 440.634,298.292 440.5,296.5C 435.203,295.968 435.203,295.134 440.5,294C 439.07,292.56 437.403,292.226 435.5,293C 434.483,294.049 434.316,295.216 435,296.5C 439.663,298.531 439.496,299.864 434.5,300.5C 433.167,300.5 431.833,300.5 430.5,300.5C 431.729,297.865 431.729,295.199 430.5,292.5C 429.526,294.743 429.192,297.076 429.5,299.5C 428.178,299.67 427.011,299.337 426,298.5C 425.802,296.618 425.302,294.952 424.5,293.5C 424.279,292.265 423.612,291.265 422.5,290.5C 425.027,289.786 427.527,289.12 430,288.5C 430.224,282.602 430.224,276.602 430,270.5C 429.039,276.288 428.205,281.955 427.5,287.5C 427.822,281.642 427.489,275.975 426.5,270.5C 425.5,270.5 424.5,270.5 423.5,270.5C 423.664,273.187 423.497,275.854 423,278.5C 421.92,276.004 420.586,273.67 419,271.5C 417.989,270.663 416.822,270.33 415.5,270.5C 415.5,276.167 415.5,281.833 415.5,287.5C 416.5,287.5 417.5,287.5 418.5,287.5C 417.653,275.973 419.32,275.64 423.5,286.5C 423.5,286.833 423.5,287.167 423.5,287.5C 422.5,287.5 421.5,287.5 420.5,287.5C 420.649,288.552 420.483,289.552 420,290.5C 419,290.833 418,291.167 417,291.5C 415.913,289.068 415.413,289.402 415.5,292.5C 414.523,295.287 414.19,298.287 414.5,301.5C 413.883,301.389 413.383,301.056 413,300.5C 412.043,296.901 412.543,293.568 414.5,290.5C 412.433,289.592 410.433,288.592 408.5,287.5C 410.483,282.72 410.983,277.72 410,272.5C 406.899,270.28 403.565,269.947 400,271.5C 399.333,276.167 399.333,280.833 400,285.5C 402.135,287.278 404.635,287.945 407.5,287.5C 410.811,291.465 411.311,295.799 409,300.5C 408.308,299.975 407.808,299.308 407.5,298.5C 408.795,295.634 408.795,292.801 407.5,290C 405.802,290.497 404.135,290.33 402.5,289.5C 402.167,290.167 401.833,290.833 401.5,291.5C 401.747,292.713 402.414,293.38 403.5,293.5C 403.737,294.791 403.404,295.791 402.5,296.5C 399.553,292.336 398.219,293.003 398.5,298.5C 397.637,299.463 396.97,299.463 396.5,298.5C 396.962,295.332 398.296,292.665 400.5,290.5C 399.349,289.269 398.183,289.269 397,290.5C 396.809,292.708 396.309,294.708 395.5,296.5C 394.555,293.013 392.222,291.68 388.5,292.5C 388.183,295.572 388.516,298.572 389.5,301.5C 390.167,300.5 390.833,299.5 391.5,298.5C 392.283,300.288 393.616,301.288 395.5,301.5C 392.923,302.972 390.089,303.972 387,304.5C 383.314,301.648 379.981,301.981 377,305.5C 375.88,303.925 374.38,302.925 372.5,302.5C 370.159,303.783 367.659,304.783 365,305.5C 362.5,304.5 360,303.5 357.5,302.5C 356.006,302.709 354.839,303.376 354,304.5C 351.966,301.141 349.632,300.808 347,303.5C 346.283,302.956 345.783,302.289 345.5,301.5C 347.117,300.411 347.95,298.744 348,296.5C 348.667,297.833 349.333,299.167 350,300.5C 351.694,296.604 352.86,296.938 353.5,301.5C 354.484,298.572 354.817,295.572 354.5,292.5C 355.222,292.918 355.722,293.584 356,294.5C 356.395,292.821 356.228,291.155 355.5,289.5C 355.482,287.627 355.982,287.294 357,288.5C 357.333,281.833 357.667,275.167 358,268.5C 359.241,266.579 360.741,266.246 362.5,267.5C 361.624,268.251 360.624,268.751 359.5,269C 363.731,269.043 365.564,271.21 365,275.5C 365.198,273.618 365.698,271.952 366.5,270.5C 367.263,269.732 368.263,269.232 369.5,269C 367.754,268.529 366.087,267.862 364.5,267C 364.957,266.586 365.291,266.086 365.5,265.5C 364.398,264.824 363.398,264.158 362.5,263.5C 367.032,263.818 371.366,263.485 375.5,262.5C 376.492,254.684 376.826,246.684 376.5,238.5C 382.833,238.5 389.167,238.5 395.5,238.5 Z"/></g>
<g><path style="opacity:1" fill="#48393d" d="M 465.5,250.5 C 466.924,252.515 467.59,254.848 467.5,257.5C 466.076,255.485 465.41,253.152 465.5,250.5 Z"/></g>
<g><path style="opacity:1" fill="#ad7d2b" d="M 60.5,248.5 C 59.8872,254.271 60.5539,259.604 62.5,264.5C 61.791,265.404 60.791,265.737 59.5,265.5C 59.1778,259.642 59.5111,253.975 60.5,248.5 Z"/></g>
<g><path style="opacity:1" fill="#c08923" d="M 92.5,247.5 C 93.209,246.596 94.209,246.263 95.5,246.5C 95.5,251.167 95.5,255.833 95.5,260.5C 91.5,260.5 87.5,260.5 83.5,260.5C 83.1796,257.102 83.513,253.768 84.5,250.5C 85.4168,249.873 86.4168,249.539 87.5,249.5C 84.9758,252.239 83.9758,255.572 84.5,259.5C 87.8333,259.5 91.1667,259.5 94.5,259.5C 95.0894,255.029 94.4228,251.029 92.5,247.5 Z"/></g>
<g><path style="opacity:1" fill="#79572b" d="M 292.5,251.5 C 292.833,251.5 293.167,251.5 293.5,251.5C 293.5,255.5 293.5,259.5 293.5,263.5C 276.325,263.83 259.325,263.497 242.5,262.5C 259.167,262.5 275.833,262.5 292.5,262.5C 292.5,258.833 292.5,255.167 292.5,251.5 Z"/></g>
<g><path style="opacity:1" fill="#74552d" d="M 423.5,260.5 C 427.715,262.436 432.381,263.103 437.5,262.5C 432.695,263.487 427.695,263.821 422.5,263.5C 422.263,262.209 422.596,261.209 423.5,260.5 Z"/></g>
<g><path style="opacity:1" fill="#72552f" d="M 483.5,259.5 C 484.167,259.5 484.5,259.833 484.5,260.5C 484.5,261.5 484.5,262.5 484.5,263.5C 479.305,263.821 474.305,263.487 469.5,262.5C 474.167,262.5 478.833,262.5 483.5,262.5C 483.5,261.5 483.5,260.5 483.5,259.5 Z"/></g>
<g><path style="opacity:1" fill="#172358" d="M 234.5,197.5 C 229.968,197.182 225.634,197.515 221.5,198.5C 220.337,219.663 220.171,240.996 221,262.5C 225.6,263.823 230.1,263.823 234.5,262.5C 235.497,242.34 235.83,222.007 235.5,201.5C 236.167,219.338 236.833,237.338 237.5,255.5C 237.287,241.586 237.62,227.252 238.5,212.5C 239.086,212.291 239.586,211.957 240,211.5C 240.423,212.956 241.256,213.456 242.5,213C 242.043,212.586 241.709,212.086 241.5,211.5C 242.117,206.701 242.784,202.034 243.5,197.5C 243.5,197.833 243.5,198.167 243.5,198.5C 243.5,202.167 243.5,205.833 243.5,209.5C 253.5,210.167 263.5,210.833 273.5,211.5C 263.548,224.625 253.381,237.625 243,250.5C 242.501,254.486 242.334,258.486 242.5,262.5C 259.325,263.497 276.325,263.83 293.5,263.5C 293.804,264.15 294.137,264.817 294.5,265.5C 298.059,266.142 301.393,267.309 304.5,269C 308.05,269.511 311.383,269.178 314.5,268C 317.612,268.851 317.946,270.017 315.5,271.5C 316.766,272.362 318.099,273.029 319.5,273.5C 317.562,277.982 316.229,282.649 315.5,287.5C 317.991,287.16 320.158,286.16 322,284.5C 324.17,285.522 326.336,286.522 328.5,287.5C 327.457,282 325.79,276.667 323.5,271.5C 323,271.167 322.5,270.833 322,270.5C 320.989,271.056 320.156,271.722 319.5,272.5C 318.272,270.99 318.272,269.49 319.5,268C 322.252,266.249 325.252,265.416 328.5,265.5C 328.682,267.591 328.348,269.591 327.5,271.5C 327.938,272.506 328.604,272.506 329.5,271.5C 330.206,277.522 330.872,283.522 331.5,289.5C 330.271,290.281 328.938,290.781 327.5,291C 326.748,291.671 326.414,292.504 326.5,293.5C 321.293,291.953 318.96,293.953 319.5,299.5C 317.958,298.699 316.292,298.366 314.5,298.5C 314.833,301.5 313.5,302.833 310.5,302.5C 310.762,303.978 310.429,305.311 309.5,306.5C 308.306,303.68 308.306,300.847 309.5,298C 307.888,296.518 306.888,294.685 306.5,292.5C 305.5,292.5 304.5,292.5 303.5,292.5C 303.26,295.579 303.593,298.579 304.5,301.5C 304.03,302.463 303.363,302.463 302.5,301.5C 302.817,298.428 302.484,295.428 301.5,292.5C 300.108,293.605 298.941,294.939 298,296.5C 297.059,294.939 295.892,293.605 294.5,292.5C 293.167,295.5 293.167,298.5 294.5,301.5C 295.281,300.271 295.781,298.938 296,297.5C 296.953,299.373 298.12,299.706 299.5,298.5C 298.618,300.084 297.785,301.751 297,303.5C 296.439,302.978 295.772,302.645 295,302.5C 293.667,303.167 292.333,303.833 291,304.5C 288.852,303.27 286.686,302.27 284.5,301.5C 290.697,301.675 291.363,300.675 286.5,298.5C 287.729,297.719 289.062,297.219 290.5,297C 285.27,296.091 285.27,294.925 290.5,293.5C 288.604,292.534 286.604,292.201 284.5,292.5C 284.5,294.833 284.5,297.167 284.5,299.5C 282.569,300.259 281.069,301.593 280,303.5C 279.282,302.549 278.449,302.383 277.5,303C 278.696,303.654 278.696,304.154 277.5,304.5C 276.289,303.126 275.289,301.626 274.5,300C 274.836,298.97 275.503,298.47 276.5,298.5C 276.263,299.791 276.596,300.791 277.5,301.5C 278.989,299.018 280.323,296.352 281.5,293.5C 279.393,292.532 277.059,292.198 274.5,292.5C 274.527,294.199 275.194,295.533 276.5,296.5C 275.5,296.5 274.5,296.5 273.5,296.5C 273.923,298.781 273.256,300.448 271.5,301.5C 273.197,298.285 272.197,296.285 268.5,295.5C 269.376,294.749 270.376,294.249 271.5,294C 267.674,291.637 266.007,292.803 266.5,297.5C 271.751,298.519 271.751,299.519 266.5,300.5C 265.25,300.577 264.417,301.244 264,302.5C 263.405,301.101 263.572,299.768 264.5,298.5C 264.058,297.261 263.391,296.261 262.5,295.5C 263.562,294.425 263.562,293.425 262.5,292.5C 261.281,293.263 260.281,294.263 259.5,295.5C 258.713,294.758 258.047,293.925 257.5,293C 256.668,292.312 256.002,292.479 255.5,293.5C 257.623,295.745 258.623,298.412 258.5,301.5C 257.18,300.058 255.514,299.392 253.5,299.5C 253.103,297.338 251.769,296.005 249.5,295.5C 253.255,293.72 252.922,292.887 248.5,293C 247.041,296.084 248.041,298.084 251.5,299C 246.342,299.683 246.342,300.516 251.5,301.5C 249.777,302.807 247.943,302.807 246,301.5C 244.475,304.087 242.308,304.92 239.5,304C 240.167,303.667 240.833,303.333 241.5,303C 236.404,301.965 231.904,303.132 228,306.5C 226.269,304.138 225.435,301.471 225.5,298.5C 226.712,299.23 227.712,300.23 228.5,301.5C 229.833,298.5 229.833,295.5 228.5,292.5C 227.719,293.729 227.219,295.062 227,296.5C 225.981,295.313 224.814,294.313 223.5,293.5C 222.52,296.086 222.187,298.753 222.5,301.5C 221.71,300.391 221.21,299.058 221,297.5C 220.51,298.793 220.343,300.127 220.5,301.5C 219.167,301.5 217.833,301.5 216.5,301.5C 220.395,298.655 220.395,295.822 216.5,293C 212.675,292.757 210.675,294.591 210.5,298.5C 209.265,298.721 208.265,299.388 207.5,300.5C 205.797,298.427 204.63,296.094 204,293.5C 203.817,296.365 203.317,299.031 202.5,301.5C 202.817,298.428 202.484,295.428 201.5,292.5C 200.719,293.729 200.219,295.062 200,296.5C 198.981,295.313 197.814,294.313 196.5,293.5C 195.52,296.086 195.187,298.753 195.5,301.5C 194.679,298.359 194.179,295.025 194,291.5C 192.539,290.117 191.706,290.451 191.5,292.5C 191.167,292.5 190.833,292.5 190.5,292.5C 189.766,291.292 189.433,289.959 189.5,288.5C 186.287,288.81 183.287,288.477 180.5,287.5C 183.833,287.5 187.167,287.5 190.5,287.5C 190.5,286.167 190.5,284.833 190.5,283.5C 188.833,283.5 187.167,283.5 185.5,283.5C 187.454,279.262 189.121,274.929 190.5,270.5C 187.167,270.5 183.833,270.5 180.5,270.5C 180.5,271.5 180.5,272.5 180.5,273.5C 182.527,273.338 184.527,273.505 186.5,274C 184.637,277.34 182.637,280.507 180.5,283.5C 180.762,282.022 180.429,280.689 179.5,279.5C 179.167,279.667 178.833,279.833 178.5,280C 178.774,283.519 178.274,287.019 177,290.5C 175.847,288.503 174.347,288.17 172.5,289.5C 173.588,290.934 174.922,291.934 176.5,292.5C 176.5,295.5 176.5,298.5 176.5,301.5C 175.188,298.592 173.855,295.592 172.5,292.5C 171.528,290.364 169.861,289.197 167.5,289C 168.672,288.581 169.672,287.915 170.5,287C 168.803,286.616 167.137,286.782 165.5,287.5C 166.897,286.181 167.563,284.514 167.5,282.5C 166.918,278.845 166.418,275.178 166,271.5C 162.943,270.549 159.777,270.216 156.5,270.5C 158.969,269.683 161.635,269.183 164.5,269C 162.833,268.667 161.167,268.333 159.5,268C 161.804,267.105 164.138,266.271 166.5,265.5C 163.358,264.833 160.358,264.166 157.5,263.5C 169.012,263.828 180.346,263.495 191.5,262.5C 193.806,262.007 196.139,261.674 198.5,261.5C 197.158,262.793 195.491,263.626 193.5,264C 195.254,266.827 197.088,266.994 199,264.5C 199.617,265.449 199.451,266.282 198.5,267C 200.257,268.75 202.257,269.916 204.5,270.5C 205.434,271.568 205.768,272.901 205.5,274.5C 201.828,275.045 202.162,275.378 206.5,275.5C 206.34,273.801 206.506,272.134 207,270.5C 207.77,269.402 208.603,269.402 209.5,270.5C 211.631,269.686 213.964,269.186 216.5,269C 214.833,268.667 213.167,268.333 211.5,268C 214.401,266.686 217.401,265.52 220.5,264.5C 219.344,242.21 219.178,219.876 220,197.5C 220.333,196.833 220.667,196.167 221,195.5C 225.601,196.142 230.101,196.809 234.5,197.5 Z"/></g>
<g><path style="opacity:1" fill="#543f30" d="M 221.5,198.5 C 225.634,197.515 229.968,197.182 234.5,197.5C 235.434,198.568 235.768,199.901 235.5,201.5C 235.83,222.007 235.497,242.34 234.5,262.5C 234.5,241.167 234.5,219.833 234.5,198.5C 230.167,198.5 225.833,198.5 221.5,198.5 Z"/></g>
<g><path style="opacity:1" fill="#f3a112" d="M 221.5,198.5 C 225.833,198.5 230.167,198.5 234.5,198.5C 234.5,219.833 234.5,241.167 234.5,262.5C 230.1,263.823 225.6,263.823 221,262.5C 220.171,240.996 220.337,219.663 221.5,198.5 Z"/></g>
<g><path style="opacity:1" fill="#dfe1e7" d="M 209.5,270.5 C 218.49,268.325 221.99,271.658 220,280.5C 219.075,281.047 218.242,281.713 217.5,282.5C 218.95,283.85 219.617,285.516 219.5,287.5C 216.52,287.759 214.687,286.426 214,283.5C 213.51,284.793 213.343,286.127 213.5,287.5C 212.167,287.5 210.833,287.5 209.5,287.5C 209.5,281.833 209.5,276.167 209.5,270.5 Z"/></g>
<g><path style="opacity:1" fill="#e4e5ea" d="M 229.5,270.5 C 230.978,270.238 232.311,270.571 233.5,271.5C 235.182,276.855 236.849,282.188 238.5,287.5C 237.167,287.5 235.833,287.5 234.5,287.5C 234.5,286.5 234.5,285.5 234.5,284.5C 232.5,284.5 230.5,284.5 228.5,284.5C 228.5,285.5 228.5,286.5 228.5,287.5C 227.022,287.762 225.689,287.429 224.5,286.5C 226.575,281.276 228.242,275.942 229.5,270.5 Z"/></g>
<g><path style="opacity:1" fill="#edeff2" d="M 253.5,270.5 C 256.518,270.335 259.518,270.502 262.5,271C 263,271.5 263.5,272 264,272.5C 264.167,274.5 264.333,276.5 264.5,278.5C 265.074,286.403 261.407,289.403 253.5,287.5C 253.5,281.833 253.5,276.167 253.5,270.5 Z"/></g>
<g><path style="opacity:1" fill="#f6f7f8" d="M 269.5,270.5 C 270.5,270.5 271.5,270.5 272.5,270.5C 272.5,276.167 272.5,281.833 272.5,287.5C 271.5,287.5 270.5,287.5 269.5,287.5C 269.5,281.833 269.5,276.167 269.5,270.5 Z"/></g>
<g><path style="opacity:1" fill="#e3e5ec" d="M 293.5,270.5 C 294.833,270.5 296.167,270.5 297.5,270.5C 297.5,276.167 297.5,281.833 297.5,287.5C 296.167,287.5 294.833,287.5 293.5,287.5C 293.5,281.833 293.5,276.167 293.5,270.5 Z"/></g>
<g><path style="opacity:1" fill="#f5f6f8" d="M 306.5,287.5 C 306.5,282.833 306.5,278.167 306.5,273.5C 305.167,273.5 303.833,273.5 302.5,273.5C 302.5,272.5 302.5,271.5 302.5,270.5C 306.167,270.5 309.833,270.5 313.5,270.5C 313.5,271.5 313.5,272.5 313.5,273.5C 312.167,273.5 310.833,273.5 309.5,273.5C 309.5,278.167 309.5,282.833 309.5,287.5C 308.5,287.5 307.5,287.5 306.5,287.5 Z"/></g>
<g><path style="opacity:1" fill="#f2f2f5" d="M 358.5,270.5 C 359.5,270.5 360.5,270.5 361.5,270.5C 361.5,276.167 361.5,281.833 361.5,287.5C 360.5,287.5 359.5,287.5 358.5,287.5C 358.5,281.833 358.5,276.167 358.5,270.5 Z"/></g>
<g><path style="opacity:1" fill="#e9ebee" d="M 366.5,270.5 C 367.552,270.351 368.552,270.517 369.5,271C 371.123,273.08 372.623,275.246 374,277.5C 374.497,275.19 374.663,272.857 374.5,270.5C 375.5,270.5 376.5,270.5 377.5,270.5C 377.5,275.833 377.5,281.167 377.5,286.5C 376.5,286.5 375.5,286.5 374.5,286.5C 371.227,278.238 369.893,278.571 370.5,287.5C 369.167,287.5 367.833,287.5 366.5,287.5C 366.5,281.833 366.5,276.167 366.5,270.5 Z"/></g>
<g><path style="opacity:1" fill="#e6e8ed" d="M 435.5,276.5 C 436.919,277.451 438.585,277.784 440.5,277.5C 440.5,278.5 440.5,279.5 440.5,280.5C 438.833,280.5 437.167,280.5 435.5,280.5C 435.5,281.833 435.5,283.167 435.5,284.5C 437.5,284.5 439.5,284.5 441.5,284.5C 441.5,285.5 441.5,286.5 441.5,287.5C 438.167,287.5 434.833,287.5 431.5,287.5C 431.5,281.833 431.5,276.167 431.5,270.5C 434.833,270.5 438.167,270.5 441.5,270.5C 441.5,271.5 441.5,272.5 441.5,273.5C 439.5,273.5 437.5,273.5 435.5,273.5C 435.5,274.5 435.5,275.5 435.5,276.5 Z"/></g>
<g><path style="opacity:1" fill="#e1e3e9" d="M 180.5,287.5 C 180.5,286.167 180.5,284.833 180.5,283.5C 182.637,280.507 184.637,277.34 186.5,274C 184.527,273.505 182.527,273.338 180.5,273.5C 180.5,272.5 180.5,271.5 180.5,270.5C 183.833,270.5 187.167,270.5 190.5,270.5C 189.121,274.929 187.454,279.262 185.5,283.5C 187.167,283.5 188.833,283.5 190.5,283.5C 190.5,284.833 190.5,286.167 190.5,287.5C 187.167,287.5 183.833,287.5 180.5,287.5 Z"/></g>
<g><path style="opacity:1" fill="#e8eaee" d="M 283.5,280.5 C 283.5,279.5 283.5,278.5 283.5,277.5C 285.167,277.5 286.833,277.5 288.5,277.5C 288.5,279.833 288.5,282.167 288.5,284.5C 288.586,285.496 288.252,286.329 287.5,287C 279.736,289.404 276.403,286.57 277.5,278.5C 276.859,270.989 280.192,268.489 287.5,271C 288.38,272.356 288.714,273.856 288.5,275.5C 286.263,274.551 283.929,273.884 281.5,273.5C 281.5,276.833 281.5,280.167 281.5,283.5C 282.833,283.5 284.167,283.5 285.5,283.5C 285.715,281.821 285.048,280.821 283.5,280.5 Z"/></g>
<g><path style="opacity:1" fill="#e5e7ec" d="M 408.5,287.5 C 408.167,287.5 407.833,287.5 407.5,287.5C 404.635,287.945 402.135,287.278 400,285.5C 399.333,280.833 399.333,276.167 400,271.5C 403.565,269.947 406.899,270.28 410,272.5C 410.983,277.72 410.483,282.72 408.5,287.5 Z"/></g>
<g><path style="opacity:1" fill="#f0f1f3" d="M 426.5,270.5 C 426.5,275.833 426.5,281.167 426.5,286.5C 425.5,286.5 424.5,286.5 423.5,286.5C 419.32,275.64 417.653,275.973 418.5,287.5C 417.5,287.5 416.5,287.5 415.5,287.5C 415.5,281.833 415.5,276.167 415.5,270.5C 416.822,270.33 417.989,270.663 419,271.5C 420.586,273.67 421.92,276.004 423,278.5C 423.497,275.854 423.664,273.187 423.5,270.5C 424.5,270.5 425.5,270.5 426.5,270.5 Z"/></g>
<g><path style="opacity:1" fill="#dddfe6" d="M 475.5,270.5 C 476.978,270.238 478.311,270.571 479.5,271.5C 481.481,276.765 483.148,282.098 484.5,287.5C 483.167,287.5 481.833,287.5 480.5,287.5C 480.5,286.5 480.5,285.5 480.5,284.5C 478.5,284.5 476.5,284.5 474.5,284.5C 474.737,285.791 474.404,286.791 473.5,287.5C 472.325,287.719 471.325,287.386 470.5,286.5C 472.181,281.146 473.848,275.813 475.5,270.5 Z"/></g>
<g><path style="opacity:1" fill="#f0f1f4" d="M 172.5,270.5 C 173.5,270.5 174.5,270.5 175.5,270.5C 175.5,276.167 175.5,281.833 175.5,287.5C 174.5,287.5 173.5,287.5 172.5,287.5C 172.5,281.833 172.5,276.167 172.5,270.5 Z"/></g>
<g><path style="opacity:1" fill="#989fb7" d="M 426.5,270.5 C 427.489,275.975 427.822,281.642 427.5,287.5C 426.167,287.5 424.833,287.5 423.5,287.5C 423.5,287.167 423.5,286.833 423.5,286.5C 424.5,286.5 425.5,286.5 426.5,286.5C 426.5,281.167 426.5,275.833 426.5,270.5 Z"/></g>
<g><path style="opacity:1" fill="#e0e3e8" d="M 156.5,270.5 C 159.777,270.216 162.943,270.549 166,271.5C 166.418,275.178 166.918,278.845 167.5,282.5C 167.563,284.514 166.897,286.181 165.5,287.5C 162.5,287.5 159.5,287.5 156.5,287.5C 156.5,281.833 156.5,276.167 156.5,270.5 Z"/></g>
<g><path style="opacity:1" fill="#e7e9ee" d="M 383.5,270.5 C 386.518,270.335 389.518,270.502 392.5,271C 393,271.5 393.5,272 394,272.5C 394.167,274.5 394.333,276.5 394.5,278.5C 395.074,286.403 391.407,289.403 383.5,287.5C 383.5,281.833 383.5,276.167 383.5,270.5 Z"/></g>
<g><path style="opacity:1" fill="#f3f4f5" d="M 462.5,270.5 C 463.5,270.5 464.5,270.5 465.5,270.5C 465.5,276.167 465.5,281.833 465.5,287.5C 464.5,287.5 463.5,287.5 462.5,287.5C 462.5,281.833 462.5,276.167 462.5,270.5 Z"/></g>
<g><path style="opacity:1" fill="#454c72" d="M 160.5,273.5 C 161.5,273.5 162.5,273.5 163.5,273.5C 163.5,274.833 163.5,276.167 163.5,277.5C 162.5,277.5 161.5,277.5 160.5,277.5C 160.5,276.167 160.5,274.833 160.5,273.5 Z"/></g>
<g><path style="opacity:1" fill="#142156" d="M 260.5,274.5 C 260.81,277.713 260.477,280.713 259.5,283.5C 257.612,281.012 256.945,278.012 257.5,274.5C 258.5,274.5 259.5,274.5 260.5,274.5 Z"/></g>
<g><path style="opacity:1" fill="#6b728f" d="M 435.5,276.5 C 437.5,276.5 439.5,276.5 441.5,276.5C 441.768,278.099 441.434,279.432 440.5,280.5C 440.5,279.5 440.5,278.5 440.5,277.5C 438.585,277.784 436.919,277.451 435.5,276.5 Z"/></g>
<g><path style="opacity:1" fill="#363c6a" d="M 213.5,273.5 C 214.5,273.5 215.5,273.5 216.5,273.5C 216.5,275.5 216.5,277.5 216.5,279.5C 215.5,279.5 214.5,279.5 213.5,279.5C 213.5,277.5 213.5,275.5 213.5,273.5 Z"/></g>
<g><path style="opacity:1" fill="#6a7292" d="M 260.5,274.5 C 259.5,274.5 258.5,274.5 257.5,274.5C 256.945,278.012 257.612,281.012 259.5,283.5C 258.791,284.404 257.791,284.737 256.5,284.5C 256.5,280.833 256.5,277.167 256.5,273.5C 258.099,273.232 259.432,273.566 260.5,274.5 Z"/></g>
<g><path style="opacity:1" fill="#e9ebee" d="M 319.5,273.5 C 319.5,273.167 319.5,272.833 319.5,272.5C 320.156,271.722 320.989,271.056 322,270.5C 322.5,270.833 323,271.167 323.5,271.5C 325.79,276.667 327.457,282 328.5,287.5C 326.336,286.522 324.17,285.522 322,284.5C 320.158,286.16 317.991,287.16 315.5,287.5C 316.229,282.649 317.562,277.982 319.5,273.5 Z"/></g>
<g><path style="opacity:1" fill="#283161" d="M 386.5,273.5 C 387.833,273.5 389.167,273.5 390.5,273.5C 390.5,276.833 390.5,280.167 390.5,283.5C 389.167,283.5 387.833,283.5 386.5,283.5C 386.5,280.167 386.5,276.833 386.5,273.5 Z"/></g>
<g><path style="opacity:1" fill="#727b9b" d="M 288.5,284.5 C 288.5,282.167 288.5,279.833 288.5,277.5C 286.833,277.5 285.167,277.5 283.5,277.5C 283.5,278.5 283.5,279.5 283.5,280.5C 282.566,279.432 282.232,278.099 282.5,276.5C 284.833,276.5 287.167,276.5 289.5,276.5C 289.806,279.385 289.473,282.052 288.5,284.5 Z"/></g>
<g><path style="opacity:1" fill="#a6aabf" d="M 377.5,270.5 C 378.489,275.975 378.822,281.642 378.5,287.5C 376.901,287.768 375.568,287.434 374.5,286.5C 375.5,286.5 376.5,286.5 377.5,286.5C 377.5,281.167 377.5,275.833 377.5,270.5 Z"/></g>
<g><path style="opacity:1" fill="#242e60" d="M 402.5,273.5 C 403.833,273.5 405.167,273.5 406.5,273.5C 406.5,276.833 406.5,280.167 406.5,283.5C 405.167,283.5 403.833,283.5 402.5,283.5C 402.5,280.167 402.5,276.833 402.5,273.5 Z"/></g>
<g><path style="opacity:1" fill="#363a63" d="M 231.5,277.5 C 232.776,278.386 232.776,279.386 231.5,280.5C 230.438,279.575 230.438,278.575 231.5,277.5 Z"/></g>
<g><path style="opacity:1" fill="#676e8c" d="M 302.5,273.5 C 303.833,273.5 305.167,273.5 306.5,273.5C 306.5,278.167 306.5,282.833 306.5,287.5C 305.515,283.366 305.182,279.032 305.5,274.5C 304.209,274.737 303.209,274.404 302.5,273.5 Z"/></g>
<g><path style="opacity:1" fill="#878aa0" d="M 321.5,277.5 C 323.104,278.287 323.771,279.62 323.5,281.5C 322.5,281.5 321.5,281.5 320.5,281.5C 320.433,280.041 320.766,278.708 321.5,277.5 Z"/></g>
<g><path style="opacity:1" fill="#1d2858" d="M 160.5,280.5 C 161.5,280.5 162.5,280.5 163.5,280.5C 163.5,281.5 163.5,282.5 163.5,283.5C 162.5,283.5 161.5,283.5 160.5,283.5C 160.5,282.5 160.5,281.5 160.5,280.5 Z"/></g>
<g><path style="opacity:1" fill="#e2e4e9" d="M 447.5,270.5 C 450.187,270.336 452.854,270.503 455.5,271C 456.406,272.699 456.739,274.533 456.5,276.5C 455.5,276.5 454.5,276.5 453.5,276.5C 453.5,275.5 453.5,274.5 453.5,273.5C 452.5,273.5 451.5,273.5 450.5,273.5C 450.281,274.675 450.614,275.675 451.5,276.5C 457.693,278.174 459.027,281.674 455.5,287C 452.833,287.667 450.167,287.667 447.5,287C 446.594,285.301 446.261,283.467 446.5,281.5C 447.833,281.5 449.167,281.5 450.5,281.5C 450.5,282.5 450.5,283.5 450.5,284.5C 451.5,284.5 452.5,284.5 453.5,284.5C 453.67,283.178 453.337,282.011 452.5,281C 446.595,279.728 444.928,276.228 447.5,270.5 Z"/></g>
<g><path style="opacity:1" fill="#ebecf0" d="M 204.5,270.5 C 204.5,271.5 204.5,272.5 204.5,273.5C 202.5,273.5 200.5,273.5 198.5,273.5C 198.5,274.833 198.5,276.167 198.5,277.5C 200.5,277.5 202.5,277.5 204.5,277.5C 204.5,278.5 204.5,279.5 204.5,280.5C 202.5,280.5 200.5,280.5 198.5,280.5C 198.5,281.5 198.5,282.5 198.5,283.5C 200.833,283.5 203.167,283.5 205.5,283.5C 205.5,284.833 205.5,286.167 205.5,287.5C 202.167,287.5 198.833,287.5 195.5,287.5C 195.5,281.833 195.5,276.167 195.5,270.5C 198.5,270.5 201.5,270.5 204.5,270.5 Z"/></g>
<g><path style="opacity:1" fill="#efa012" d="M 43.5,280.5 C 44.4816,283.962 44.815,287.629 44.5,291.5C 37.8407,298.827 32.174,306.827 27.5,315.5C 25.9458,316.914 24.6125,318.581 23.5,320.5C 20.8908,319.557 18.8908,317.89 17.5,315.5C 23.9775,303.361 31.9775,292.361 41.5,282.5C 42.1667,281.833 42.8333,281.167 43.5,280.5 Z"/></g>
<g><path style="opacity:1" fill="#493e3b" d="M 43.5,280.5 C 43.56,279.957 43.8933,279.624 44.5,279.5C 45.8095,283.649 45.8095,287.649 44.5,291.5C 44.815,287.629 44.4816,283.962 43.5,280.5 Z"/></g>
<g><path style="opacity:1" fill="#b4bacc" d="M 334.5,270.5 C 334.5,275.833 334.5,281.167 334.5,286.5C 337.247,286.813 339.914,286.48 342.5,285.5C 340.604,284.534 338.604,284.201 336.5,284.5C 336.5,279.833 336.5,275.167 336.5,270.5C 337.485,274.634 337.818,278.968 337.5,283.5C 339.5,283.5 341.5,283.5 343.5,283.5C 343.5,284.833 343.5,286.167 343.5,287.5C 340.167,287.5 336.833,287.5 333.5,287.5C 333.178,281.642 333.511,275.975 334.5,270.5 Z"/></g>
<g><path style="opacity:1" fill="#fbfcfb" d="M 334.5,270.5 C 335.167,270.5 335.833,270.5 336.5,270.5C 336.5,275.167 336.5,279.833 336.5,284.5C 338.604,284.201 340.604,284.534 342.5,285.5C 339.914,286.48 337.247,286.813 334.5,286.5C 334.5,281.167 334.5,275.833 334.5,270.5 Z"/></g>
<g><path style="opacity:1" fill="#ced1db" d="M 176.5,292.5 C 178.344,294.279 179.01,296.612 178.5,299.5C 179.978,299.238 181.311,299.571 182.5,300.5C 180.604,301.466 178.604,301.799 176.5,301.5C 176.5,298.5 176.5,295.5 176.5,292.5 Z"/></g>
<g><path style="opacity:1" fill="#d6d9e3" d="M 216.5,301.5 C 213.687,301.975 211.687,300.975 210.5,298.5C 210.675,294.591 212.675,292.757 216.5,293C 220.395,295.822 220.395,298.655 216.5,301.5 Z"/></g>
<g><path style="opacity:1" fill="#ced2dc" d="M 326.5,293.5 C 328.338,300.669 326.005,302.669 319.5,299.5C 318.96,293.953 321.293,291.953 326.5,293.5 Z"/></g>
<g><path style="opacity:1" fill="#b8bcca" d="M 415.5,292.5 C 417.144,292.286 418.644,292.62 420,293.5C 422.987,299.435 421.154,302.102 414.5,301.5C 414.19,298.287 414.523,295.287 415.5,292.5 Z"/></g>
<g><path style="opacity:1" fill="#ced2dd" d="M 439.5,301.5 C 437.708,301.634 436.042,301.301 434.5,300.5C 439.496,299.864 439.663,298.531 435,296.5C 434.316,295.216 434.483,294.049 435.5,293C 437.403,292.226 439.07,292.56 440.5,294C 435.203,295.134 435.203,295.968 440.5,296.5C 440.634,298.292 440.301,299.958 439.5,301.5 Z"/></g>
<g><path style="opacity:1" fill="#f6f8f9" d="M 465.5,294.5 C 460.203,295.032 460.203,295.866 465.5,297C 460.203,298.134 460.203,298.968 465.5,299.5C 464.081,300.451 462.415,300.784 460.5,300.5C 460.5,298.167 460.5,295.833 460.5,293.5C 462.415,293.216 464.081,293.549 465.5,294.5 Z"/></g>
<g><path style="opacity:1" fill="#cdd1dc" d="M 284.5,301.5 C 284.5,300.833 284.5,300.167 284.5,299.5C 284.5,297.167 284.5,294.833 284.5,292.5C 286.604,292.201 288.604,292.534 290.5,293.5C 285.27,294.925 285.27,296.091 290.5,297C 289.062,297.219 287.729,297.719 286.5,298.5C 291.363,300.675 290.697,301.675 284.5,301.5 Z"/></g>
<g><path style="opacity:1" fill="#d7dae2" d="M 402.5,296.5 C 402.56,297.043 402.893,297.376 403.5,297.5C 404.281,296.271 404.781,294.938 405,293.5C 405.167,294.667 405.333,295.833 405.5,297C 405.392,298.681 404.725,299.848 403.5,300.5C 401.405,296.348 400.072,296.681 399.5,301.5C 398.614,300.675 398.281,299.675 398.5,298.5C 398.219,293.003 399.553,292.336 402.5,296.5 Z"/></g>
<g><path style="opacity:1" fill="#707696" d="M 403.5,300.5 C 404.725,299.848 405.392,298.681 405.5,297C 405.333,295.833 405.167,294.667 405,293.5C 404.781,294.938 404.281,296.271 403.5,297.5C 402.893,297.376 402.56,297.043 402.5,296.5C 403.404,295.791 403.737,294.791 403.5,293.5C 404.209,292.596 405.209,292.263 406.5,292.5C 406.5,295.5 406.5,298.5 406.5,301.5C 405.209,301.737 404.209,301.404 403.5,300.5 Z"/></g>
<g><path style="opacity:1" fill="#aeb3c5" d="M 444.5,301.5 C 444.167,301.5 443.833,301.5 443.5,301.5C 443.183,298.428 443.516,295.428 444.5,292.5C 445.803,295.645 445.803,298.645 444.5,301.5 Z"/></g>
<g><path style="opacity:1" fill="#d0d4df" d="M 479.5,292.5 C 483.956,292.896 484.29,293.896 480.5,295.5C 484.021,296.15 485.021,297.983 483.5,301C 481.741,301.798 480.074,301.631 478.5,300.5C 479.729,299.719 481.062,299.219 482.5,299C 481.142,298.066 479.808,297.232 478.5,296.5C 478.433,295.041 478.766,293.708 479.5,292.5 Z"/></g>
<g><path style="opacity:1" fill="#5f6586" d="M 173.5,299.5 C 172.167,299.5 170.833,299.5 169.5,299.5C 169.662,297.473 169.495,295.473 169,293.5C 168.503,295.81 168.337,298.143 168.5,300.5C 170.167,300.5 171.833,300.5 173.5,300.5C 171.735,301.461 169.735,301.795 167.5,301.5C 167.5,298.5 167.5,295.5 167.5,292.5C 168.5,292.5 169.5,292.5 170.5,292.5C 170.5,294.5 170.5,296.5 170.5,298.5C 171.791,298.263 172.791,298.596 173.5,299.5 Z"/></g>
<g><path style="opacity:1" fill="#c5c8d4" d="M 225.5,298.5 C 225.565,298.062 225.399,297.728 225,297.5C 224.878,299.437 224.045,300.77 222.5,301.5C 222.187,298.753 222.52,296.086 223.5,293.5C 224.814,294.313 225.981,295.313 227,296.5C 227.219,295.062 227.719,293.729 228.5,292.5C 229.833,295.5 229.833,298.5 228.5,301.5C 227.712,300.23 226.712,299.23 225.5,298.5 Z"/></g>
<g><path style="opacity:1" fill="#bec2d0" d="M 262.5,295.5 C 261.455,297.77 260.121,299.77 258.5,301.5C 258.623,298.412 257.623,295.745 255.5,293.5C 256.002,292.479 256.668,292.312 257.5,293C 258.047,293.925 258.713,294.758 259.5,295.5C 260.281,294.263 261.281,293.263 262.5,292.5C 263.562,293.425 263.562,294.425 262.5,295.5 Z"/></g>
<g><path style="opacity:1" fill="#535b81" d="M 281.5,293.5 C 279.473,293.338 277.473,293.505 275.5,294C 277.291,296.106 277.958,298.606 277.5,301.5C 276.596,300.791 276.263,299.791 276.5,298.5C 276.5,297.833 276.5,297.167 276.5,296.5C 275.194,295.533 274.527,294.199 274.5,292.5C 277.059,292.198 279.393,292.532 281.5,293.5 Z"/></g>
<g><path style="opacity:1" fill="#78809d" d="M 336.5,293.5 C 334.833,293.5 333.167,293.5 331.5,293.5C 331.337,295.857 331.503,298.19 332,300.5C 332.601,298.641 333.434,298.308 334.5,299.5C 333.533,300.806 332.199,301.473 330.5,301.5C 330.5,298.5 330.5,295.5 330.5,292.5C 332.735,292.205 334.735,292.539 336.5,293.5 Z"/></g>
<g><path style="opacity:1" fill="#c4c8d3" d="M 159.5,292.5 C 160.675,292.281 161.675,292.614 162.5,293.5C 163.305,295.915 164.305,298.249 165.5,300.5C 165.167,300.833 164.833,301.167 164.5,301.5C 162.287,298.92 160.12,298.92 158,301.5C 157.861,298.425 158.361,295.425 159.5,292.5 Z"/></g>
<g><path style="opacity:1" fill="#b9bdcd" d="M 310.5,292.5 C 312.924,292.192 315.257,292.526 317.5,293.5C 315.833,294.167 314.167,294.833 312.5,295.5C 317.682,296.776 317.682,297.443 312.5,297.5C 312.762,298.978 312.429,300.311 311.5,301.5C 310.516,298.572 310.183,295.572 310.5,292.5 Z"/></g>
<g><path style="opacity:1" fill="#272f60" d="M 322.5,294.5 C 326.161,294.35 327.161,295.85 325.5,299C 321.707,299.487 320.707,297.987 322.5,294.5 Z"/></g>
<g><path style="opacity:1" fill="#d2d5df" d="M 454.5,301.5 C 454.068,300.29 453.401,299.29 452.5,298.5C 452.217,297.711 451.717,297.044 451,296.5C 450.667,297.833 450.333,299.167 450,300.5C 449.186,298.098 449.353,295.765 450.5,293.5C 451.814,294.313 452.981,295.313 454,296.5C 455.369,292.667 456.203,293.001 456.5,297.5C 456.415,299.333 455.748,300.666 454.5,301.5 Z"/></g>
<g><path style="opacity:1" fill="#cdd1db" d="M 202.5,301.5 C 200.376,300.969 198.876,299.635 198,297.5C 197.878,299.437 197.045,300.77 195.5,301.5C 195.187,298.753 195.52,296.086 196.5,293.5C 197.814,294.313 198.981,295.313 200,296.5C 200.219,295.062 200.719,293.729 201.5,292.5C 202.484,295.428 202.817,298.428 202.5,301.5 Z"/></g>
<g><path style="opacity:1" fill="#2b3363" d="M 213.5,294.5 C 217.161,294.35 218.161,295.85 216.5,299C 212.707,299.487 211.707,297.987 213.5,294.5 Z"/></g>
<g><path style="opacity:1" fill="#858ba7" d="M 238.5,296.5 C 233.203,295.968 233.203,295.134 238.5,294C 236.866,293.506 235.199,293.34 233.5,293.5C 233.5,295.833 233.5,298.167 233.5,300.5C 235.415,300.784 237.081,300.451 238.5,299.5C 239.043,299.56 239.376,299.893 239.5,300.5C 237.257,301.474 234.924,301.808 232.5,301.5C 232.5,298.5 232.5,295.5 232.5,292.5C 234.833,292.5 237.167,292.5 239.5,292.5C 239.567,293.959 239.234,295.292 238.5,296.5 Z"/></g>
<g><path style="opacity:1" fill="#f8faf8" d="M 238.5,296.5 C 237.282,297.161 235.949,297.828 234.5,298.5C 235.689,299.429 237.022,299.762 238.5,299.5C 237.081,300.451 235.415,300.784 233.5,300.5C 233.5,298.167 233.5,295.833 233.5,293.5C 235.199,293.34 236.866,293.506 238.5,294C 233.203,295.134 233.203,295.968 238.5,296.5 Z"/></g>
<g><path style="opacity:1" fill="#cfd3de" d="M 253.5,299.5 C 253.167,300.5 252.5,301.167 251.5,301.5C 246.342,300.516 246.342,299.683 251.5,299C 248.041,298.084 247.041,296.084 248.5,293C 252.922,292.887 253.255,293.72 249.5,295.5C 251.769,296.005 253.103,297.338 253.5,299.5 Z"/></g>
<g><path style="opacity:1" fill="#ced2dd" d="M 271.5,301.5 C 269.585,301.784 267.919,301.451 266.5,300.5C 271.751,299.519 271.751,298.519 266.5,297.5C 266.007,292.803 267.674,291.637 271.5,294C 270.376,294.249 269.376,294.749 268.5,295.5C 272.197,296.285 273.197,298.285 271.5,301.5 Z"/></g>
<g><path style="opacity:1" fill="#c7cbd6" d="M 302.5,301.5 C 300.955,300.77 300.122,299.437 300,297.5C 299.601,297.728 299.435,298.062 299.5,298.5C 298.12,299.706 296.953,299.373 296,297.5C 295.781,298.938 295.281,300.271 294.5,301.5C 293.167,298.5 293.167,295.5 294.5,292.5C 295.892,293.605 297.059,294.939 298,296.5C 298.941,294.939 300.108,293.605 301.5,292.5C 302.484,295.428 302.817,298.428 302.5,301.5 Z"/></g>
<g><path style="opacity:1" fill="#8c93ad" d="M 373.5,293.5 C 372.167,293.5 370.833,293.5 369.5,293.5C 369.5,295.833 369.5,298.167 369.5,300.5C 370.833,300.5 372.167,300.5 373.5,300.5C 372.081,301.451 370.415,301.784 368.5,301.5C 368.5,298.5 368.5,295.5 368.5,292.5C 370.415,292.216 372.081,292.549 373.5,293.5 Z"/></g>
<g><path style="opacity:1" fill="#cdd1db" d="M 379.5,292.5 C 385.697,292.325 386.363,293.325 381.5,295.5C 382.729,296.281 384.062,296.781 385.5,297C 380.27,297.909 380.27,299.075 385.5,300.5C 383.604,301.466 381.604,301.799 379.5,301.5C 379.5,298.5 379.5,295.5 379.5,292.5 Z"/></g>
<g><path style="opacity:1" fill="#c3c7d4" d="M 395.5,296.5 C 394.438,298.099 394.438,299.766 395.5,301.5C 393.616,301.288 392.283,300.288 391.5,298.5C 390.833,299.5 390.167,300.5 389.5,301.5C 388.516,298.572 388.183,295.572 388.5,292.5C 392.222,291.68 394.555,293.013 395.5,296.5 Z"/></g>
<g><path style="opacity:1" fill="#878ea7" d="M 190.5,292.5 C 190.833,292.5 191.167,292.5 191.5,292.5C 192.477,295.287 192.81,298.287 192.5,301.5C 191.5,301.5 190.5,301.5 189.5,301.5C 189.264,298.391 189.597,295.391 190.5,292.5 Z"/></g>
<g><path style="opacity:1" fill="#cbd1dc" d="M 281.5,293.5 C 280.323,296.352 278.989,299.018 277.5,301.5C 277.958,298.606 277.291,296.106 275.5,294C 277.473,293.505 279.473,293.338 281.5,293.5 Z"/></g>
<g><path style="opacity:1" fill="#c4c7d4" d="M 336.5,293.5 C 337.047,295.74 337.381,298.074 337.5,300.5C 337.167,300.833 336.833,301.167 336.5,301.5C 335.818,300.757 335.151,300.091 334.5,299.5C 333.434,298.308 332.601,298.641 332,300.5C 331.503,298.19 331.337,295.857 331.5,293.5C 333.167,293.5 334.833,293.5 336.5,293.5 Z"/></g>
<g><path style="opacity:1" fill="#cccfda" d="M 354.5,292.5 C 354.817,295.572 354.484,298.572 353.5,301.5C 352.86,296.938 351.694,296.604 350,300.5C 349.333,299.167 348.667,297.833 348,296.5C 347.95,298.744 347.117,300.411 345.5,301.5C 345.183,298.428 345.516,295.428 346.5,292.5C 347.892,293.605 349.059,294.939 350,296.5C 350.876,294.365 352.376,293.031 354.5,292.5 Z"/></g>
<g><path style="opacity:1" fill="#eaeff1" d="M 173.5,299.5 C 173.5,299.833 173.5,300.167 173.5,300.5C 171.833,300.5 170.167,300.5 168.5,300.5C 168.337,298.143 168.503,295.81 169,293.5C 169.495,295.473 169.662,297.473 169.5,299.5C 170.833,299.5 172.167,299.5 173.5,299.5 Z"/></g>
<g><path style="opacity:1" fill="#ccd0db" d="M 359.5,292.5 C 365.643,293.026 366.976,295.86 363.5,301C 358.504,301.664 356.67,299.498 358,294.5C 358.717,293.956 359.217,293.289 359.5,292.5 Z"/></g>
<g><path style="opacity:1" fill="#222a5c" d="M 360.5,294.5 C 361.5,294.5 362.5,294.5 363.5,294.5C 363.5,296.167 363.5,297.833 363.5,299.5C 359.716,299.475 358.716,297.808 360.5,294.5 Z"/></g>
<g><path style="opacity:1" fill="#d9dce4" d="M 373.5,293.5 C 376.077,294.69 376.91,296.69 376,299.5C 375.329,300.252 374.496,300.586 373.5,300.5C 372.167,300.5 370.833,300.5 369.5,300.5C 369.5,298.167 369.5,295.833 369.5,293.5C 370.833,293.5 372.167,293.5 373.5,293.5 Z"/></g>
<g><path style="opacity:1" fill="#343b6a" d="M 370.5,294.5 C 374.161,294.35 375.161,295.85 373.5,299C 372.552,299.483 371.552,299.649 370.5,299.5C 370.5,297.833 370.5,296.167 370.5,294.5 Z"/></g>
<g><path style="opacity:1" fill="#d2d5df" d="M 430.5,300.5 C 428.661,301.752 426.828,301.752 425,300.5C 424.503,298.19 424.337,295.857 424.5,293.5C 425.302,294.952 425.802,296.618 426,298.5C 427.011,299.337 428.178,299.67 429.5,299.5C 429.192,297.076 429.526,294.743 430.5,292.5C 431.729,295.199 431.729,297.865 430.5,300.5 Z"/></g>
<g><path style="opacity:1" fill="#ccd0db" d="M 475.5,297.5 C 475.67,298.822 475.337,299.989 474.5,301C 472.613,301.78 470.946,301.613 469.5,300.5C 470.609,299.71 471.942,299.21 473.5,299C 471.602,298.1 469.936,296.934 468.5,295.5C 468.977,294.522 469.643,293.689 470.5,293C 473.134,292.075 474.301,292.909 474,295.5C 473.107,294.289 472.274,294.289 471.5,295.5C 472.766,296.362 474.099,297.029 475.5,297.5 Z"/></g>
<g><path style="opacity:1" fill="#959bb4" d="M 465.5,294.5 C 464.081,293.549 462.415,293.216 460.5,293.5C 460.5,295.833 460.5,298.167 460.5,300.5C 462.415,300.784 464.081,300.451 465.5,299.5C 465.833,299.5 466.167,299.5 466.5,299.5C 466.5,300.833 465.833,301.5 464.5,301.5C 462.833,301.5 461.167,301.5 459.5,301.5C 459.5,298.5 459.5,295.5 459.5,292.5C 461.924,292.192 464.257,292.526 466.5,293.5C 466.376,294.107 466.043,294.44 465.5,294.5 Z"/></g>
<g><path style="opacity:1" fill="#3f363b" d="M 35.5,318.5 C 35.1961,319.15 34.8627,319.817 34.5,320.5C 55.8229,321.5 77.1563,321.833 98.5,321.5C 87.8386,322.167 77.0052,322.5 66,322.5C 54.8121,322.499 43.9788,321.832 33.5,320.5C 31.9749,317.543 32.6416,316.876 35.5,318.5 Z"/></g>
</svg>
